<?xml version="1.0" encoding="UTF-8" standalone="no"?>
<!DOCTYPE svg PUBLIC "-//W3C//DTD SVG 1.1//EN"
 "http://www.w3.org/Graphics/SVG/1.1/DTD/svg11.dtd">
<!-- Generated by graphviz version 2.40.1 (20161225.0304)
 -->
<!-- Title: G Pages: 1 -->
<svg width="504pt" height="844pt"
 viewBox="0.00 0.00 503.68 844.00" xmlns="http://www.w3.org/2000/svg" xmlns:xlink="http://www.w3.org/1999/xlink">
<g id="graph0" class="graph" transform="scale(1 1) rotate(0) translate(4 840)">
<title>G</title>
<polygon fill="#ffffff" stroke="transparent" points="-4,4 -4,-840 499.6782,-840 499.6782,4 -4,4"/>
<g id="clust1" class="cluster">
<title>cluster_Global</title>
<path fill="none" stroke="#c0c0c0" d="M297.6782,-8C297.6782,-8 475.6782,-8 475.6782,-8 481.6782,-8 487.6782,-14 487.6782,-20 487.6782,-20 487.6782,-816 487.6782,-816 487.6782,-822 481.6782,-828 475.6782,-828 475.6782,-828 297.6782,-828 297.6782,-828 291.6782,-828 285.6782,-822 285.6782,-816 285.6782,-816 285.6782,-20 285.6782,-20 285.6782,-14 291.6782,-8 297.6782,-8"/>
<text text-anchor="middle" x="386.6782" y="-815.2" font-family="Times,serif" font-size="11.00" fill="#c0c0c0">Global</text>
</g>
<g id="clust2" class="cluster">
<title>cluster_\Uspdev</title>
<path fill="none" stroke="#c0c0c0" d="M305.6782,-16C305.6782,-16 467.6782,-16 467.6782,-16 473.6782,-16 479.6782,-22 479.6782,-28 479.6782,-28 479.6782,-788 479.6782,-788 479.6782,-794 473.6782,-800 467.6782,-800 467.6782,-800 305.6782,-800 305.6782,-800 299.6782,-800 293.6782,-794 293.6782,-788 293.6782,-788 293.6782,-28 293.6782,-28 293.6782,-22 299.6782,-16 305.6782,-16"/>
<text text-anchor="middle" x="386.6782" y="-787.2" font-family="Times,serif" font-size="11.00" fill="#c0c0c0">Uspdev</text>
</g>
<g id="clust3" class="cluster">
<title>cluster_\Uspdev\Replicado</title>
<path fill="none" stroke="#c0c0c0" d="M313.6782,-24C313.6782,-24 459.6782,-24 459.6782,-24 465.6782,-24 471.6782,-30 471.6782,-36 471.6782,-36 471.6782,-760 471.6782,-760 471.6782,-766 465.6782,-772 459.6782,-772 459.6782,-772 313.6782,-772 313.6782,-772 307.6782,-772 301.6782,-766 301.6782,-760 301.6782,-760 301.6782,-36 301.6782,-36 301.6782,-30 307.6782,-24 313.6782,-24"/>
<text text-anchor="middle" x="386.6782" y="-759.2" font-family="Times,serif" font-size="11.00" fill="#c0c0c0">Replicado</text>
</g>
<g id="clust4" class="cluster">
<title>cluster_\Uspdev\Replicado\Tests</title>
<path fill="none" stroke="#c0c0c0" d="M321.6782,-402C321.6782,-402 451.6782,-402 451.6782,-402 457.6782,-402 463.6782,-408 463.6782,-414 463.6782,-414 463.6782,-732 463.6782,-732 463.6782,-738 457.6782,-744 451.6782,-744 451.6782,-744 321.6782,-744 321.6782,-744 315.6782,-744 309.6782,-738 309.6782,-732 309.6782,-732 309.6782,-414 309.6782,-414 309.6782,-408 315.6782,-402 321.6782,-402"/>
<text text-anchor="middle" x="386.6782" y="-731.2" font-family="Times,serif" font-size="11.00" fill="#c0c0c0">Tests</text>
</g>
<!-- \\Uspdev\\Replicado\\Tests\\BuildFakerDataTest -->
<g id="node1" class="node">
<title>\\Uspdev\\Replicado\\Tests\\BuildFakerDataTest</title>
<polygon fill="none" stroke="#000000" points="455.6782,-716 317.6782,-716 317.6782,-680 455.6782,-680 455.6782,-716"/>
<text text-anchor="middle" x="386.6782" y="-695.2" font-family="Courier,monospace" font-size="11.00" fill="#000000">BuildFakerDataTest</text>
</g>
<!-- \\PHPUnit\\Framework\\TestCase -->
<g id="node14" class="node">
<title>\\PHPUnit\\Framework\\TestCase</title>
<ellipse fill="none" stroke="#000000" cx="122.8391" cy="-563" rx="122.6784" ry="18"/>
<text text-anchor="middle" x="122.8391" y="-559.3" font-family="Times,serif" font-size="14.00" fill="#c0c0c0">\PHPUnit\Framework\TestCase</text>
</g>
<!-- \\Uspdev\\Replicado\\Tests\\BuildFakerDataTest&#45;&gt;\\PHPUnit\\Framework\\TestCase -->
<g id="edge1" class="edge">
<title>\\Uspdev\\Replicado\\Tests\\BuildFakerDataTest&#45;&gt;\\PHPUnit\\Framework\\TestCase</title>
<path fill="none" stroke="#000000" d="M317.4504,-682.7051C306.6098,-679.3992 295.6895,-675.5119 285.6782,-671 235.7109,-648.4807 183.9552,-611.3699 152.57,-587.0544"/>
<polygon fill="none" stroke="#000000" points="154.6916,-584.2703 144.6599,-580.8618 150.3765,-589.7821 154.6916,-584.2703"/>
</g>
<!-- \\Uspdev\\Replicado\\Tests\\DeploySchemaTest -->
<g id="node2" class="node">
<title>\\Uspdev\\Replicado\\Tests\\DeploySchemaTest</title>
<polygon fill="none" stroke="#000000" points="449.1782,-662 324.1782,-662 324.1782,-626 449.1782,-626 449.1782,-662"/>
<text text-anchor="middle" x="386.6782" y="-641.2" font-family="Courier,monospace" font-size="11.00" fill="#000000">DeploySchemaTest</text>
</g>
<!-- \\Uspdev\\Replicado\\Tests\\DeploySchemaTest&#45;&gt;\\PHPUnit\\Framework\\TestCase -->
<g id="edge2" class="edge">
<title>\\Uspdev\\Replicado\\Tests\\DeploySchemaTest&#45;&gt;\\PHPUnit\\Framework\\TestCase</title>
<path fill="none" stroke="#000000" d="M324.0181,-627.8656C311.291,-624.4155 298.0243,-620.6938 285.6782,-617 250.5319,-606.4847 211.5102,-593.5875 180.4784,-583.0346"/>
<polygon fill="none" stroke="#000000" points="181.2934,-579.6146 170.6989,-579.6967 179.0322,-586.2393 181.2934,-579.6146"/>
</g>
<!-- \\Uspdev\\Replicado\\Tests\\GraduacaoTest -->
<g id="node3" class="node">
<title>\\Uspdev\\Replicado\\Tests\\GraduacaoTest</title>
<polygon fill="none" stroke="#000000" points="438.6782,-608 334.6782,-608 334.6782,-572 438.6782,-572 438.6782,-608"/>
<text text-anchor="middle" x="386.6782" y="-587.2" font-family="Courier,monospace" font-size="11.00" fill="#000000">GraduacaoTest</text>
</g>
<!-- \\Uspdev\\Replicado\\Tests\\GraduacaoTest&#45;&gt;\\PHPUnit\\Framework\\TestCase -->
<g id="edge3" class="edge">
<title>\\Uspdev\\Replicado\\Tests\\GraduacaoTest&#45;&gt;\\PHPUnit\\Framework\\TestCase</title>
<path fill="none" stroke="#000000" d="M334.5521,-584.6657C305.7799,-581.7213 268.8961,-577.9468 234,-574.3757"/>
<polygon fill="none" stroke="#000000" points="234.0382,-570.8614 223.7338,-573.3251 233.3255,-577.825 234.0382,-570.8614"/>
</g>
<!-- \\Uspdev\\Replicado\\Tests\\LattesTest -->
<g id="node4" class="node">
<title>\\Uspdev\\Replicado\\Tests\\LattesTest</title>
<polygon fill="none" stroke="#000000" points="428.6782,-554 344.6782,-554 344.6782,-518 428.6782,-518 428.6782,-554"/>
<text text-anchor="middle" x="386.6782" y="-533.2" font-family="Courier,monospace" font-size="11.00" fill="#000000">LattesTest</text>
</g>
<!-- \\Uspdev\\Replicado\\Tests\\LattesTest&#45;&gt;\\PHPUnit\\Framework\\TestCase -->
<g id="edge4" class="edge">
<title>\\Uspdev\\Replicado\\Tests\\LattesTest&#45;&gt;\\PHPUnit\\Framework\\TestCase</title>
<path fill="none" stroke="#000000" d="M344.5804,-540.3081C314.7315,-543.3627 273.1989,-547.6129 234.1391,-551.6101"/>
<polygon fill="none" stroke="#000000" points="233.3288,-548.1747 223.7371,-552.6746 234.0415,-555.1383 233.3288,-548.1747"/>
</g>
<!-- \\Uspdev\\Replicado\\Tests\\PosgraduacaoTest -->
<g id="node5" class="node">
<title>\\Uspdev\\Replicado\\Tests\\PosgraduacaoTest</title>
<polygon fill="none" stroke="#000000" points="449.1782,-500 324.1782,-500 324.1782,-464 449.1782,-464 449.1782,-500"/>
<text text-anchor="middle" x="386.6782" y="-479.2" font-family="Courier,monospace" font-size="11.00" fill="#000000">PosgraduacaoTest</text>
</g>
<!-- \\Uspdev\\Replicado\\Tests\\PosgraduacaoTest&#45;&gt;\\PHPUnit\\Framework\\TestCase -->
<g id="edge5" class="edge">
<title>\\Uspdev\\Replicado\\Tests\\PosgraduacaoTest&#45;&gt;\\PHPUnit\\Framework\\TestCase</title>
<path fill="none" stroke="#000000" d="M324.0181,-498.1344C311.291,-501.5845 298.0243,-505.3062 285.6782,-509 250.5319,-519.5153 211.5102,-532.4125 180.4784,-542.9654"/>
<polygon fill="none" stroke="#000000" points="179.0322,-539.7607 170.6989,-546.3033 181.2934,-546.3854 179.0322,-539.7607"/>
</g>
<!-- \\Uspdev\\Replicado\\Tests\\PessoaTest -->
<g id="node6" class="node">
<title>\\Uspdev\\Replicado\\Tests\\PessoaTest</title>
<polygon fill="none" stroke="#000000" points="428.6782,-446 344.6782,-446 344.6782,-410 428.6782,-410 428.6782,-446"/>
<text text-anchor="middle" x="386.6782" y="-425.2" font-family="Courier,monospace" font-size="11.00" fill="#000000">PessoaTest</text>
</g>
<!-- \\Uspdev\\Replicado\\Tests\\PessoaTest&#45;&gt;\\PHPUnit\\Framework\\TestCase -->
<g id="edge6" class="edge">
<title>\\Uspdev\\Replicado\\Tests\\PessoaTest&#45;&gt;\\PHPUnit\\Framework\\TestCase</title>
<path fill="none" stroke="#000000" d="M344.3509,-436.0896C325.8602,-440.4354 304.2115,-446.6474 285.6782,-455 235.7109,-477.5193 183.9552,-514.6301 152.57,-538.9456"/>
<polygon fill="none" stroke="#000000" points="150.3765,-536.2179 144.6599,-545.1382 154.6916,-541.7297 150.3765,-536.2179"/>
</g>
<!-- \\Uspdev\\Replicado\\Posgraduacao -->
<g id="node7" class="node">
<title>\\Uspdev\\Replicado\\Posgraduacao</title>
<polygon fill="none" stroke="#000000" points="435.6782,-392 337.6782,-392 337.6782,-356 435.6782,-356 435.6782,-392"/>
<text text-anchor="middle" x="386.6782" y="-371.2" font-family="Courier,monospace" font-size="11.00" fill="#000000">Posgraduacao</text>
</g>
<!-- \\Uspdev\\Replicado\\Pessoa -->
<g id="node8" class="node">
<title>\\Uspdev\\Replicado\\Pessoa</title>
<polygon fill="none" stroke="#000000" points="415.1782,-338 358.1782,-338 358.1782,-302 415.1782,-302 415.1782,-338"/>
<text text-anchor="middle" x="386.6782" y="-317.2" font-family="Courier,monospace" font-size="11.00" fill="#000000">Pessoa</text>
</g>
<!-- \\Uspdev\\Replicado\\DB -->
<g id="node9" class="node">
<title>\\Uspdev\\Replicado\\DB</title>
<polygon fill="none" stroke="#000000" points="413.6782,-284 359.6782,-284 359.6782,-248 413.6782,-248 413.6782,-284"/>
<text text-anchor="middle" x="386.6782" y="-263.2" font-family="Courier,monospace" font-size="11.00" fill="#000000">DB</text>
</g>
<!-- \\Uspdev\\Replicado\\Uteis -->
<g id="node10" class="node">
<title>\\Uspdev\\Replicado\\Uteis</title>
<polygon fill="none" stroke="#000000" points="413.6782,-230 359.6782,-230 359.6782,-194 413.6782,-194 413.6782,-230"/>
<text text-anchor="middle" x="386.6782" y="-209.2" font-family="Courier,monospace" font-size="11.00" fill="#000000">Uteis</text>
</g>
<!-- \\Uspdev\\Replicado\\Graduacao -->
<g id="node11" class="node">
<title>\\Uspdev\\Replicado\\Graduacao</title>
<polygon fill="none" stroke="#000000" points="425.1782,-176 348.1782,-176 348.1782,-140 425.1782,-140 425.1782,-176"/>
<text text-anchor="middle" x="386.6782" y="-155.2" font-family="Courier,monospace" font-size="11.00" fill="#000000">Graduacao</text>
</g>
<!-- \\Uspdev\\Replicado\\Lattes -->
<g id="node12" class="node">
<title>\\Uspdev\\Replicado\\Lattes</title>
<polygon fill="none" stroke="#000000" points="415.1782,-122 358.1782,-122 358.1782,-86 415.1782,-86 415.1782,-122"/>
<text text-anchor="middle" x="386.6782" y="-101.2" font-family="Courier,monospace" font-size="11.00" fill="#000000">Lattes</text>
</g>
<!-- \\Uspdev\\Replicado\\Bempatrimoniado -->
<g id="node13" class="node">
<title>\\Uspdev\\Replicado\\Bempatrimoniado</title>
<polygon fill="none" stroke="#000000" points="445.6782,-68 327.6782,-68 327.6782,-32 445.6782,-32 445.6782,-68"/>
<text text-anchor="middle" x="386.6782" y="-47.2" font-family="Courier,monospace" font-size="11.00" fill="#000000">Bempatrimoniado</text>
</g>
</g>
</svg>
