<?xml version="1.0" encoding="UTF-8" standalone="no"?>
<!DOCTYPE svg PUBLIC "-//W3C//DTD SVG 1.1//EN"
 "http://www.w3.org/Graphics/SVG/1.1/DTD/svg11.dtd">
<!-- Generated by graphviz version 2.40.1 (20161225.0304)
 -->
<!-- Title: G Pages: 1 -->
<svg width="504pt" height="790pt"
 viewBox="0.00 0.00 503.68 790.00" xmlns="http://www.w3.org/2000/svg" xmlns:xlink="http://www.w3.org/1999/xlink">
<g id="graph0" class="graph" transform="scale(1 1) rotate(0) translate(4 786)">
<title>G</title>
<polygon fill="#ffffff" stroke="transparent" points="-4,4 -4,-786 499.6782,-786 499.6782,4 -4,4"/>
<g id="clust1" class="cluster">
<title>cluster_Global</title>
<path fill="none" stroke="#c0c0c0" d="M297.6782,-8C297.6782,-8 475.6782,-8 475.6782,-8 481.6782,-8 487.6782,-14 487.6782,-20 487.6782,-20 487.6782,-762 487.6782,-762 487.6782,-768 481.6782,-774 475.6782,-774 475.6782,-774 297.6782,-774 297.6782,-774 291.6782,-774 285.6782,-768 285.6782,-762 285.6782,-762 285.6782,-20 285.6782,-20 285.6782,-14 291.6782,-8 297.6782,-8"/>
<text text-anchor="middle" x="386.6782" y="-761.2" font-family="Times,serif" font-size="11.00" fill="#c0c0c0">Global</text>
</g>
<g id="clust2" class="cluster">
<title>cluster_\Uspdev</title>
<path fill="none" stroke="#c0c0c0" d="M305.6782,-16C305.6782,-16 467.6782,-16 467.6782,-16 473.6782,-16 479.6782,-22 479.6782,-28 479.6782,-28 479.6782,-734 479.6782,-734 479.6782,-740 473.6782,-746 467.6782,-746 467.6782,-746 305.6782,-746 305.6782,-746 299.6782,-746 293.6782,-740 293.6782,-734 293.6782,-734 293.6782,-28 293.6782,-28 293.6782,-22 299.6782,-16 305.6782,-16"/>
<text text-anchor="middle" x="386.6782" y="-733.2" font-family="Times,serif" font-size="11.00" fill="#c0c0c0">Uspdev</text>
</g>
<g id="clust3" class="cluster">
<title>cluster_\Uspdev\Replicado</title>
<path fill="none" stroke="#c0c0c0" d="M313.6782,-24C313.6782,-24 459.6782,-24 459.6782,-24 465.6782,-24 471.6782,-30 471.6782,-36 471.6782,-36 471.6782,-706 471.6782,-706 471.6782,-712 465.6782,-718 459.6782,-718 459.6782,-718 313.6782,-718 313.6782,-718 307.6782,-718 301.6782,-712 301.6782,-706 301.6782,-706 301.6782,-36 301.6782,-36 301.6782,-30 307.6782,-24 313.6782,-24"/>
<text text-anchor="middle" x="386.6782" y="-705.2" font-family="Times,serif" font-size="11.00" fill="#c0c0c0">Replicado</text>
</g>
<g id="clust4" class="cluster">
<title>cluster_\Uspdev\Replicado\Tests</title>
<path fill="none" stroke="#c0c0c0" d="M321.6782,-402C321.6782,-402 451.6782,-402 451.6782,-402 457.6782,-402 463.6782,-408 463.6782,-414 463.6782,-414 463.6782,-678 463.6782,-678 463.6782,-684 457.6782,-690 451.6782,-690 451.6782,-690 321.6782,-690 321.6782,-690 315.6782,-690 309.6782,-684 309.6782,-678 309.6782,-678 309.6782,-414 309.6782,-414 309.6782,-408 315.6782,-402 321.6782,-402"/>
<text text-anchor="middle" x="386.6782" y="-677.2" font-family="Times,serif" font-size="11.00" fill="#c0c0c0">Tests</text>
</g>
<!-- \\Uspdev\\Replicado\\Tests\\PosgraduacaoTest -->
<g id="node1" class="node">
<title>\\Uspdev\\Replicado\\Tests\\PosgraduacaoTest</title>
<polygon fill="none" stroke="#000000" points="449.1782,-662 324.1782,-662 324.1782,-626 449.1782,-626 449.1782,-662"/>
<text text-anchor="middle" x="386.6782" y="-641.2" font-family="Courier,monospace" font-size="11.00" fill="#000000">PosgraduacaoTest</text>
</g>
<!-- \\PHPUnit\\Framework\\TestCase -->
<g id="node13" class="node">
<title>\\PHPUnit\\Framework\\TestCase</title>
<ellipse fill="none" stroke="#000000" cx="122.8391" cy="-536" rx="122.6784" ry="18"/>
<text text-anchor="middle" x="122.8391" y="-532.3" font-family="Times,serif" font-size="14.00" fill="#c0c0c0">\PHPUnit\Framework\TestCase</text>
</g>
<!-- \\Uspdev\\Replicado\\Tests\\PosgraduacaoTest&#45;&gt;\\PHPUnit\\Framework\\TestCase -->
<g id="edge1" class="edge">
<title>\\Uspdev\\Replicado\\Tests\\PosgraduacaoTest&#45;&gt;\\PHPUnit\\Framework\\TestCase</title>
<path fill="none" stroke="#000000" d="M324.0971,-629.3672C311.2397,-625.7781 297.9023,-621.6208 285.6782,-617 242.2641,-600.5893 195.0197,-576.3197 162.6565,-558.6263"/>
<polygon fill="none" stroke="#000000" points="163.9728,-555.3554 153.5256,-553.5928 160.5934,-561.4856 163.9728,-555.3554"/>
</g>
<!-- \\Uspdev\\Replicado\\Tests\\GraduacaoTest -->
<g id="node2" class="node">
<title>\\Uspdev\\Replicado\\Tests\\GraduacaoTest</title>
<polygon fill="none" stroke="#000000" points="438.6782,-608 334.6782,-608 334.6782,-572 438.6782,-572 438.6782,-608"/>
<text text-anchor="middle" x="386.6782" y="-587.2" font-family="Courier,monospace" font-size="11.00" fill="#000000">GraduacaoTest</text>
</g>
<!-- \\Uspdev\\Replicado\\Tests\\GraduacaoTest&#45;&gt;\\PHPUnit\\Framework\\TestCase -->
<g id="edge2" class="edge">
<title>\\Uspdev\\Replicado\\Tests\\GraduacaoTest&#45;&gt;\\PHPUnit\\Framework\\TestCase</title>
<path fill="none" stroke="#000000" d="M334.5521,-579.3313C297.5697,-571.7622 247.1859,-561.4501 204.8473,-552.7846"/>
<polygon fill="none" stroke="#000000" points="205.3295,-549.3108 194.8308,-550.7346 203.9259,-556.1687 205.3295,-549.3108"/>
</g>
<!-- \\Uspdev\\Replicado\\Tests\\BuildFakerDataTest -->
<g id="node3" class="node">
<title>\\Uspdev\\Replicado\\Tests\\BuildFakerDataTest</title>
<polygon fill="none" stroke="#000000" points="455.6782,-554 317.6782,-554 317.6782,-518 455.6782,-518 455.6782,-554"/>
<text text-anchor="middle" x="386.6782" y="-533.2" font-family="Courier,monospace" font-size="11.00" fill="#000000">BuildFakerDataTest</text>
</g>
<!-- \\Uspdev\\Replicado\\Tests\\BuildFakerDataTest&#45;&gt;\\PHPUnit\\Framework\\TestCase -->
<g id="edge3" class="edge">
<title>\\Uspdev\\Replicado\\Tests\\BuildFakerDataTest&#45;&gt;\\PHPUnit\\Framework\\TestCase</title>
<path fill="none" stroke="#000000" d="M317.3576,-536C298.3778,-536 277.1476,-536 255.8785,-536"/>
<polygon fill="none" stroke="#000000" points="255.7791,-532.5001 245.7791,-536 255.7791,-539.5001 255.7791,-532.5001"/>
</g>
<!-- \\Uspdev\\Replicado\\Tests\\PessoaTest -->
<g id="node4" class="node">
<title>\\Uspdev\\Replicado\\Tests\\PessoaTest</title>
<polygon fill="none" stroke="#000000" points="428.6782,-500 344.6782,-500 344.6782,-464 428.6782,-464 428.6782,-500"/>
<text text-anchor="middle" x="386.6782" y="-479.2" font-family="Courier,monospace" font-size="11.00" fill="#000000">PessoaTest</text>
</g>
<!-- \\Uspdev\\Replicado\\Tests\\PessoaTest&#45;&gt;\\PHPUnit\\Framework\\TestCase -->
<g id="edge4" class="edge">
<title>\\Uspdev\\Replicado\\Tests\\PessoaTest&#45;&gt;\\PHPUnit\\Framework\\TestCase</title>
<path fill="none" stroke="#000000" d="M344.5804,-490.6162C306.9678,-498.3143 250.803,-509.8096 204.4115,-519.3046"/>
<polygon fill="none" stroke="#000000" points="203.4636,-515.9259 194.3686,-521.3601 204.8673,-522.7838 203.4636,-515.9259"/>
</g>
<!-- \\Uspdev\\Replicado\\Tests\\DeploySchemaTest -->
<g id="node5" class="node">
<title>\\Uspdev\\Replicado\\Tests\\DeploySchemaTest</title>
<polygon fill="none" stroke="#000000" points="449.1782,-446 324.1782,-446 324.1782,-410 449.1782,-410 449.1782,-446"/>
<text text-anchor="middle" x="386.6782" y="-425.2" font-family="Courier,monospace" font-size="11.00" fill="#000000">DeploySchemaTest</text>
</g>
<!-- \\Uspdev\\Replicado\\Tests\\DeploySchemaTest&#45;&gt;\\PHPUnit\\Framework\\TestCase -->
<g id="edge5" class="edge">
<title>\\Uspdev\\Replicado\\Tests\\DeploySchemaTest&#45;&gt;\\PHPUnit\\Framework\\TestCase</title>
<path fill="none" stroke="#000000" d="M324.0971,-442.6328C311.2397,-446.2219 297.9023,-450.3792 285.6782,-455 242.2641,-471.4107 195.0197,-495.6803 162.6565,-513.3737"/>
<polygon fill="none" stroke="#000000" points="160.5934,-510.5144 153.5256,-518.4072 163.9728,-516.6446 160.5934,-510.5144"/>
</g>
<!-- \\Uspdev\\Replicado\\Lattes -->
<g id="node6" class="node">
<title>\\Uspdev\\Replicado\\Lattes</title>
<polygon fill="none" stroke="#000000" points="415.1782,-392 358.1782,-392 358.1782,-356 415.1782,-356 415.1782,-392"/>
<text text-anchor="middle" x="386.6782" y="-371.2" font-family="Courier,monospace" font-size="11.00" fill="#000000">Lattes</text>
</g>
<!-- \\Uspdev\\Replicado\\Bempatrimoniado -->
<g id="node7" class="node">
<title>\\Uspdev\\Replicado\\Bempatrimoniado</title>
<polygon fill="none" stroke="#000000" points="445.6782,-338 327.6782,-338 327.6782,-302 445.6782,-302 445.6782,-338"/>
<text text-anchor="middle" x="386.6782" y="-317.2" font-family="Courier,monospace" font-size="11.00" fill="#000000">Bempatrimoniado</text>
</g>
<!-- \\Uspdev\\Replicado\\DB -->
<g id="node8" class="node">
<title>\\Uspdev\\Replicado\\DB</title>
<polygon fill="none" stroke="#000000" points="413.6782,-284 359.6782,-284 359.6782,-248 413.6782,-248 413.6782,-284"/>
<text text-anchor="middle" x="386.6782" y="-263.2" font-family="Courier,monospace" font-size="11.00" fill="#000000">DB</text>
</g>
<!-- \\Uspdev\\Replicado\\Uteis -->
<g id="node9" class="node">
<title>\\Uspdev\\Replicado\\Uteis</title>
<polygon fill="none" stroke="#000000" points="413.6782,-230 359.6782,-230 359.6782,-194 413.6782,-194 413.6782,-230"/>
<text text-anchor="middle" x="386.6782" y="-209.2" font-family="Courier,monospace" font-size="11.00" fill="#000000">Uteis</text>
</g>
<!-- \\Uspdev\\Replicado\\Graduacao -->
<g id="node10" class="node">
<title>\\Uspdev\\Replicado\\Graduacao</title>
<polygon fill="none" stroke="#000000" points="425.1782,-176 348.1782,-176 348.1782,-140 425.1782,-140 425.1782,-176"/>
<text text-anchor="middle" x="386.6782" y="-155.2" font-family="Courier,monospace" font-size="11.00" fill="#000000">Graduacao</text>
</g>
<!-- \\Uspdev\\Replicado\\Pessoa -->
<g id="node11" class="node">
<title>\\Uspdev\\Replicado\\Pessoa</title>
<polygon fill="none" stroke="#000000" points="415.1782,-122 358.1782,-122 358.1782,-86 415.1782,-86 415.1782,-122"/>
<text text-anchor="middle" x="386.6782" y="-101.2" font-family="Courier,monospace" font-size="11.00" fill="#000000">Pessoa</text>
</g>
<!-- \\Uspdev\\Replicado\\Posgraduacao -->
<g id="node12" class="node">
<title>\\Uspdev\\Replicado\\Posgraduacao</title>
<polygon fill="none" stroke="#000000" points="435.6782,-68 337.6782,-68 337.6782,-32 435.6782,-32 435.6782,-68"/>
<text text-anchor="middle" x="386.6782" y="-47.2" font-family="Courier,monospace" font-size="11.00" fill="#000000">Posgraduacao</text>
</g>
</g>
</svg>
