<?xml version="1.0" encoding="UTF-8" standalone="no"?>
<!DOCTYPE svg PUBLIC "-//W3C//DTD SVG 1.1//EN"
 "http://www.w3.org/Graphics/SVG/1.1/DTD/svg11.dtd">
<!-- Generated by graphviz version 2.40.1 (20161225.0304)
 -->
<!-- Title: G Pages: 1 -->
<svg width="363pt" height="628pt"
 viewBox="0.00 0.00 362.79 628.00" xmlns="http://www.w3.org/2000/svg" xmlns:xlink="http://www.w3.org/1999/xlink">
<g id="graph0" class="graph" transform="scale(1 1) rotate(0) translate(4 624)">
<title>G</title>
<polygon fill="#ffffff" stroke="transparent" points="-4,4 -4,-624 358.7924,-624 358.7924,4 -4,4"/>
<g id="clust1" class="cluster">
<title>cluster_Global</title>
<path fill="none" stroke="#c0c0c0" d="M20,-8C20,-8 334.7924,-8 334.7924,-8 340.7924,-8 346.7924,-14 346.7924,-20 346.7924,-20 346.7924,-600 346.7924,-600 346.7924,-606 340.7924,-612 334.7924,-612 334.7924,-612 20,-612 20,-612 14,-612 8,-606 8,-600 8,-600 8,-20 8,-20 8,-14 14,-8 20,-8"/>
<text text-anchor="middle" x="177.3962" y="-599.2" font-family="Times,serif" font-size="11.00" fill="#c0c0c0">Global</text>
</g>
<g id="clust2" class="cluster">
<title>cluster_\Uspdev</title>
<path fill="none" stroke="#c0c0c0" d="M177.7924,-16C177.7924,-16 326.7924,-16 326.7924,-16 332.7924,-16 338.7924,-22 338.7924,-28 338.7924,-28 338.7924,-572 338.7924,-572 338.7924,-578 332.7924,-584 326.7924,-584 326.7924,-584 177.7924,-584 177.7924,-584 171.7924,-584 165.7924,-578 165.7924,-572 165.7924,-572 165.7924,-28 165.7924,-28 165.7924,-22 171.7924,-16 177.7924,-16"/>
<text text-anchor="middle" x="252.2924" y="-571.2" font-family="Times,serif" font-size="11.00" fill="#c0c0c0">Uspdev</text>
</g>
<g id="clust3" class="cluster">
<title>cluster_\Uspdev\Replicado</title>
<path fill="none" stroke="#c0c0c0" d="M185.7924,-24C185.7924,-24 318.7924,-24 318.7924,-24 324.7924,-24 330.7924,-30 330.7924,-36 330.7924,-36 330.7924,-544 330.7924,-544 330.7924,-550 324.7924,-556 318.7924,-556 318.7924,-556 185.7924,-556 185.7924,-556 179.7924,-556 173.7924,-550 173.7924,-544 173.7924,-544 173.7924,-36 173.7924,-36 173.7924,-30 179.7924,-24 185.7924,-24"/>
<text text-anchor="middle" x="252.2924" y="-543.2" font-family="Times,serif" font-size="11.00" fill="#c0c0c0">Replicado</text>
</g>
<g id="clust4" class="cluster">
<title>cluster_\Uspdev\Replicado\Tests</title>
<path fill="none" stroke="#c0c0c0" d="M193.7924,-402C193.7924,-402 310.7924,-402 310.7924,-402 316.7924,-402 322.7924,-408 322.7924,-414 322.7924,-414 322.7924,-516 322.7924,-516 322.7924,-522 316.7924,-528 310.7924,-528 310.7924,-528 193.7924,-528 193.7924,-528 187.7924,-528 181.7924,-522 181.7924,-516 181.7924,-516 181.7924,-414 181.7924,-414 181.7924,-408 187.7924,-402 193.7924,-402"/>
<text text-anchor="middle" x="252.2924" y="-515.2" font-family="Times,serif" font-size="11.00" fill="#c0c0c0">Tests</text>
</g>
<g id="clust5" class="cluster">
<title>cluster_Global\PHPUnit</title>
<path fill="none" stroke="#c0c0c0" d="M28,-421C28,-421 121.7924,-421 121.7924,-421 127.7924,-421 133.7924,-427 133.7924,-433 133.7924,-433 133.7924,-517 133.7924,-517 133.7924,-523 127.7924,-529 121.7924,-529 121.7924,-529 28,-529 28,-529 22,-529 16,-523 16,-517 16,-517 16,-433 16,-433 16,-427 22,-421 28,-421"/>
<text text-anchor="middle" x="74.8962" y="-516.2" font-family="Times,serif" font-size="11.00" fill="#c0c0c0">PHPUnit</text>
</g>
<g id="clust6" class="cluster">
<title>cluster_Global\PHPUnit\Framework</title>
<path fill="none" stroke="#c0c0c0" d="M36,-429C36,-429 113.7924,-429 113.7924,-429 119.7924,-429 125.7924,-435 125.7924,-441 125.7924,-441 125.7924,-489 125.7924,-489 125.7924,-495 119.7924,-501 113.7924,-501 113.7924,-501 36,-501 36,-501 30,-501 24,-495 24,-489 24,-489 24,-441 24,-441 24,-435 30,-429 36,-429"/>
<text text-anchor="middle" x="74.8962" y="-488.2" font-family="Times,serif" font-size="11.00" fill="#c0c0c0">Framework</text>
</g>
<!-- \\Uspdev\\Replicado\\Tests\\PessoaTest -->
<g id="node1" class="node">
<title>\\Uspdev\\Replicado\\Tests\\PessoaTest</title>
<polygon fill="none" stroke="#000000" points="294.2924,-500 210.2924,-500 210.2924,-464 294.2924,-464 294.2924,-500"/>
<text text-anchor="middle" x="252.2924" y="-479.2" font-family="Courier,monospace" font-size="11.00" fill="#000000">PessoaTest</text>
</g>
<!-- TestCase -->
<g id="node10" class="node">
<title>TestCase</title>
<ellipse fill="none" stroke="#000000" cx="74.8962" cy="-455" rx="42.7926" ry="18"/>
<text text-anchor="middle" x="74.8962" y="-451.3" font-family="Times,serif" font-size="14.00" fill="#c0c0c0">TestCase</text>
</g>
<!-- \\Uspdev\\Replicado\\Tests\\PessoaTest&#45;&gt;TestCase -->
<g id="edge1" class="edge">
<title>\\Uspdev\\Replicado\\Tests\\PessoaTest&#45;&gt;TestCase</title>
<path fill="none" stroke="#000000" d="M210.252,-475.6014C184.8136,-471.7296 152.2175,-466.7684 125.3874,-462.6848"/>
<polygon fill="none" stroke="#000000" points="125.8266,-459.2115 115.4138,-461.1668 124.7732,-466.1318 125.8266,-459.2115"/>
</g>
<!-- \\Uspdev\\Replicado\\Tests\\DeploySchemaTest -->
<g id="node2" class="node">
<title>\\Uspdev\\Replicado\\Tests\\DeploySchemaTest</title>
<polygon fill="none" stroke="#000000" points="314.7924,-446 189.7924,-446 189.7924,-410 314.7924,-410 314.7924,-446"/>
<text text-anchor="middle" x="252.2924" y="-425.2" font-family="Courier,monospace" font-size="11.00" fill="#000000">DeploySchemaTest</text>
</g>
<!-- \\Uspdev\\Replicado\\Tests\\DeploySchemaTest&#45;&gt;TestCase -->
<g id="edge2" class="edge">
<title>\\Uspdev\\Replicado\\Tests\\DeploySchemaTest&#45;&gt;TestCase</title>
<path fill="none" stroke="#000000" d="M189.7491,-437.5192C168.6826,-440.7256 145.4543,-444.2609 125.4317,-447.3084"/>
<polygon fill="none" stroke="#000000" points="124.6414,-443.8883 115.2819,-448.8532 125.6947,-450.8086 124.6414,-443.8883"/>
</g>
<!-- \\Uspdev\\Replicado\\Lattes -->
<g id="node3" class="node">
<title>\\Uspdev\\Replicado\\Lattes</title>
<polygon fill="none" stroke="#000000" points="280.7924,-392 223.7924,-392 223.7924,-356 280.7924,-356 280.7924,-392"/>
<text text-anchor="middle" x="252.2924" y="-371.2" font-family="Courier,monospace" font-size="11.00" fill="#000000">Lattes</text>
</g>
<!-- \\Uspdev\\Replicado\\Bempatrimoniado -->
<g id="node4" class="node">
<title>\\Uspdev\\Replicado\\Bempatrimoniado</title>
<polygon fill="none" stroke="#000000" points="311.2924,-338 193.2924,-338 193.2924,-302 311.2924,-302 311.2924,-338"/>
<text text-anchor="middle" x="252.2924" y="-317.2" font-family="Courier,monospace" font-size="11.00" fill="#000000">Bempatrimoniado</text>
</g>
<!-- \\Uspdev\\Replicado\\DB -->
<g id="node5" class="node">
<title>\\Uspdev\\Replicado\\DB</title>
<polygon fill="none" stroke="#000000" points="279.2924,-284 225.2924,-284 225.2924,-248 279.2924,-248 279.2924,-284"/>
<text text-anchor="middle" x="252.2924" y="-263.2" font-family="Courier,monospace" font-size="11.00" fill="#000000">DB</text>
</g>
<!-- \\Uspdev\\Replicado\\Uteis -->
<g id="node6" class="node">
<title>\\Uspdev\\Replicado\\Uteis</title>
<polygon fill="none" stroke="#000000" points="279.2924,-230 225.2924,-230 225.2924,-194 279.2924,-194 279.2924,-230"/>
<text text-anchor="middle" x="252.2924" y="-209.2" font-family="Courier,monospace" font-size="11.00" fill="#000000">Uteis</text>
</g>
<!-- \\Uspdev\\Replicado\\Graduacao -->
<g id="node7" class="node">
<title>\\Uspdev\\Replicado\\Graduacao</title>
<polygon fill="none" stroke="#000000" points="290.7924,-176 213.7924,-176 213.7924,-140 290.7924,-140 290.7924,-176"/>
<text text-anchor="middle" x="252.2924" y="-155.2" font-family="Courier,monospace" font-size="11.00" fill="#000000">Graduacao</text>
</g>
<!-- \\Uspdev\\Replicado\\Pessoa -->
<g id="node8" class="node">
<title>\\Uspdev\\Replicado\\Pessoa</title>
<polygon fill="none" stroke="#000000" points="280.7924,-122 223.7924,-122 223.7924,-86 280.7924,-86 280.7924,-122"/>
<text text-anchor="middle" x="252.2924" y="-101.2" font-family="Courier,monospace" font-size="11.00" fill="#000000">Pessoa</text>
</g>
<!-- \\Uspdev\\Replicado\\Posgraduacao -->
<g id="node9" class="node">
<title>\\Uspdev\\Replicado\\Posgraduacao</title>
<polygon fill="none" stroke="#000000" points="301.2924,-68 203.2924,-68 203.2924,-32 301.2924,-32 301.2924,-68"/>
<text text-anchor="middle" x="252.2924" y="-47.2" font-family="Courier,monospace" font-size="11.00" fill="#000000">Posgraduacao</text>
</g>
</g>
</svg>
